<svg width="50" height="50" viewBox="0 0 50 50" fill="none" xmlns="http://www.w3.org/2000/svg">
<path d="M6.15176 47.4704L5.19672 49H7H43.941H44.941V48V39.6688V38.6688H43.941H23.5122L44.8466 4.73405L45.8099 3.20181H44H19.8644H19.8603H19.8561H19.852H19.8479H19.8438H19.8396H19.8355H19.8314H19.8273H19.8232H19.8191H19.815H19.8109H19.8068H19.8028H19.7987H19.7946H19.7906H19.7865H19.7824H19.7784H19.7743H19.7703H19.7663H19.7623H19.7582H19.7542H19.7502H19.7462H19.7422H19.7382H19.7342H19.7302H19.7262H19.7222H19.7183H19.7143H19.7103H19.7064H19.7024H19.6985H19.6945H19.6906H19.6867H19.6827H19.6788H19.6749H19.671H19.6671H19.6632H19.6593H19.6554H19.6515H19.6476H19.6437H19.6398H19.636H19.6321H19.6282H19.6244H19.6205H19.6167H19.6129H19.609H19.6052H19.6014H19.5976H19.5937H19.5899H19.5861H19.5823H19.5785H19.5747H19.571H19.5672H19.5634H19.5596H19.5559H19.5521H19.5483H19.5446H19.5408H19.5371H19.5334H19.5296H19.5259H19.5222H19.5185H19.5148H19.5111H19.5074H19.5037H19.5H19.4963H19.4926H19.4889H19.4853H19.4816H19.4779H19.4743H19.4706H19.467H19.4633H19.4597H19.4561H19.4524H19.4488H19.4452H19.4416H19.438H19.4344H19.4308H19.4272H19.4236H19.42H19.4164H19.4129H19.4093H19.4057H19.4022H19.3986H19.3951H19.3915H19.388H19.3845H19.3809H19.3774H19.3739H19.3704H19.3669H19.3634H19.3599H19.3564H19.3529H19.3494H19.3459H19.3425H19.339H19.3355H19.3321H19.3286H19.3252H19.3217H19.3183H19.3149H19.3114H19.308H19.3046H19.3012H19.2978H19.2944H19.291H19.2876H19.2842H19.2808H19.2774H19.274H19.2707H19.2673H19.2639H19.2606H19.2572H19.2539H19.2506H19.2472H19.2439H19.2406H19.2373H19.2339H19.2306H19.2273H19.224H19.2207H19.2174H19.2142H19.2109H19.2076H19.2043H19.2011H19.1978H19.1945H19.1913H19.1881H19.1848H19.1816H19.1783H19.1751H19.1719H19.1687H19.1655H19.1623H19.1591H19.1559H19.1527H19.1495H19.1463H19.1431H19.14H19.1368H19.1336H19.1305H19.1273H19.1242H19.121H19.1179H19.1148H19.1116H19.1085H19.1054H19.1023H19.0992H19.0961H19.093H19.0899H19.0868H19.0837H19.0807H19.0776H19.0745H19.0715H19.0684H19.0653H19.0623H19.0593H19.0562H19.0532H19.0502H19.0471H19.0441H19.0411H19.0381H19.0351H19.0321H19.0291H19.0261H19.0231H19.0202H19.0172H19.0142H19.0112H19.0083H19.0053H19.0024H18.9994H18.9965H18.9936H18.9906H18.9877H18.9876C18.9803 3.09794 18.9761 2.97556 18.9761 2.83312V2V1H17.9761H10.1276H9.12759V2V8.24838C9.12759 9.31558 9.53263 10.2772 10.2602 11.1087L10.2807 11.1322L10.3027 11.1543C11.0222 11.8799 11.8708 12.4629 12.8385 12.9065L12.863 12.9177L12.8881 12.9276C13.8895 13.3228 14.8797 13.533 15.8517 13.533H27.2419C26.8611 14.1328 26.4422 14.7903 25.9851 15.5055L25.9809 15.5122L25.9767 15.5189C24.8766 17.3018 23.6189 19.3231 22.2035 21.583L22.2035 21.583L22.1969 21.5938C20.8225 23.8509 19.389 26.1678 17.8964 28.5445L17.8963 28.5444L17.8901 28.5546C16.4363 30.9321 15.0022 33.2499 13.5879 35.508L13.5878 35.508L13.5813 35.5187C12.2072 37.7753 10.9522 39.7923 9.81606 41.5702L9.81181 41.5768L9.80766 41.5836C8.70653 43.3681 7.8224 44.7947 7.15495 45.8637L6.40256 47.0687L6.21446 47.37L6.16744 47.4453L6.15568 47.4641L6.15274 47.4688L6.15201 47.47L6.15182 47.4703L6.15178 47.4704L7 48L6.15176 47.4704ZM19.0401 3.55153C19.0413 3.55428 19.0418 3.55576 19.0418 3.55581C19.0417 3.55587 19.0411 3.55449 19.0401 3.55153Z" fill="#29A587" stroke="#29A587" stroke-width="2"/>
</svg>
