<svg width="128" height="44" viewBox="0 0 128 44" fill="none" xmlns="http://www.w3.org/2000/svg">
<g filter="url(#filter0_d_1_8)">
<rect y="0.5" width="125" height="41" rx="20.5" fill="white" shape-rendering="crispEdges"/>
<path d="M24.5875 20.7285C25.6112 20.7285 26.5362 20.6052 27.3625 20.3585C28.1888 20.1118 28.8425 19.7418 29.3235 19.2485C29.8168 18.7552 30.0635 18.1385 30.0635 17.3985C30.0635 16.7325 29.8847 16.1282 29.527 15.5855C29.1817 15.0428 28.6698 14.6112 27.9915 14.2905C27.3132 13.9698 26.4868 13.8095 25.5125 13.8095C24.5998 13.8095 23.7982 13.9883 23.1075 14.346C22.4168 14.6913 21.8803 15.1723 21.498 15.789C21.128 16.3933 20.943 17.0778 20.943 17.8425H23.8105C23.8105 17.3862 23.9708 17.0162 24.2915 16.7325C24.6122 16.4488 25.0192 16.307 25.5125 16.307C25.8455 16.307 26.1168 16.3625 26.3265 16.4735C26.5362 16.5722 26.6965 16.7202 26.8075 16.9175C26.9185 17.1148 26.974 17.3368 26.974 17.5835C26.974 17.8178 26.9185 18.0398 26.8075 18.2495C26.6965 18.4592 26.53 18.6442 26.308 18.8045C26.0983 18.9648 25.8455 19.0943 25.5495 19.193C25.2658 19.2793 24.9452 19.3225 24.5875 19.3225V20.7285ZM25.3645 27.296C26.4252 27.296 27.3317 27.1357 28.084 26.815C28.8363 26.482 29.416 26.0318 29.823 25.4645C30.23 24.8848 30.4335 24.2188 30.4335 23.4665C30.4335 22.8128 30.2917 22.2517 30.008 21.783C29.7243 21.3143 29.3173 20.932 28.787 20.636C28.2567 20.3277 27.6338 20.1057 26.9185 19.97C26.2155 19.822 25.4385 19.748 24.5875 19.748V21.339C25.0562 21.339 25.4632 21.3822 25.8085 21.4685C26.1538 21.5548 26.4375 21.6843 26.6595 21.857C26.8938 22.0173 27.0665 22.2085 27.1775 22.4305C27.2885 22.6525 27.344 22.8992 27.344 23.1705C27.344 23.5282 27.2638 23.8303 27.1035 24.077C26.9432 24.3237 26.7212 24.5025 26.4375 24.6135C26.1662 24.7245 25.8455 24.78 25.4755 24.78C25.1302 24.78 24.7972 24.7122 24.4765 24.5765C24.1682 24.4408 23.9215 24.2312 23.7365 23.9475C23.5515 23.6638 23.459 23.3123 23.459 22.893H20.388C20.388 23.4603 20.499 24.0092 20.721 24.5395C20.9553 25.0698 21.2822 25.5447 21.7015 25.964C22.1332 26.3833 22.6573 26.7102 23.274 26.9445C23.8907 27.1788 24.5875 27.296 25.3645 27.296ZM36.0777 20.7285C37.1014 20.7285 38.0264 20.6052 38.8527 20.3585C39.6791 20.1118 40.3327 19.7418 40.8137 19.2485C41.3071 18.7552 41.5537 18.1385 41.5537 17.3985C41.5537 16.7325 41.3749 16.1282 41.0172 15.5855C40.6719 15.0428 40.1601 14.6112 39.4817 14.2905C38.8034 13.9698 37.9771 13.8095 37.0027 13.8095C36.0901 13.8095 35.2884 13.9883 34.5977 14.346C33.9071 14.6913 33.3706 15.1723 32.9882 15.789C32.6182 16.3933 32.4332 17.0778 32.4332 17.8425H35.3007C35.3007 17.3862 35.4611 17.0162 35.7817 16.7325C36.1024 16.4488 36.5094 16.307 37.0027 16.307C37.3357 16.307 37.6071 16.3625 37.8167 16.4735C38.0264 16.5722 38.1867 16.7202 38.2977 16.9175C38.4087 17.1148 38.4642 17.3368 38.4642 17.5835C38.4642 17.8178 38.4087 18.0398 38.2977 18.2495C38.1867 18.4592 38.0202 18.6442 37.7982 18.8045C37.5886 18.9648 37.3357 19.0943 37.0397 19.193C36.7561 19.2793 36.4354 19.3225 36.0777 19.3225V20.7285ZM36.8547 27.296C37.9154 27.296 38.8219 27.1357 39.5742 26.815C40.3266 26.482 40.9062 26.0318 41.3132 25.4645C41.7202 24.8848 41.9237 24.2188 41.9237 23.4665C41.9237 22.8128 41.7819 22.2517 41.4982 21.783C41.2146 21.3143 40.8076 20.932 40.2772 20.636C39.7469 20.3277 39.1241 20.1057 38.4087 19.97C37.7057 19.822 36.9287 19.748 36.0777 19.748V21.339C36.5464 21.339 36.9534 21.3822 37.2987 21.4685C37.6441 21.5548 37.9277 21.6843 38.1497 21.857C38.3841 22.0173 38.5567 22.2085 38.6677 22.4305C38.7787 22.6525 38.8342 22.8992 38.8342 23.1705C38.8342 23.5282 38.7541 23.8303 38.5937 24.077C38.4334 24.3237 38.2114 24.5025 37.9277 24.6135C37.6564 24.7245 37.3357 24.78 36.9657 24.78C36.6204 24.78 36.2874 24.7122 35.9667 24.5765C35.6584 24.4408 35.4117 24.2312 35.2267 23.9475C35.0417 23.6638 34.9492 23.3123 34.9492 22.893H31.8782C31.8782 23.4603 31.9892 24.0092 32.2112 24.5395C32.4456 25.0698 32.7724 25.5447 33.1917 25.964C33.6234 26.3833 34.1476 26.7102 34.7642 26.9445C35.3809 27.1788 36.0777 27.296 36.8547 27.296ZM46.236 20.525C46.236 19.9207 46.2915 19.3718 46.4025 18.8785C46.5135 18.3728 46.6738 17.9473 46.8835 17.602C47.0931 17.2443 47.3398 16.973 47.6235 16.788C47.9195 16.5907 48.2463 16.492 48.604 16.492C48.9616 16.492 49.2823 16.5907 49.566 16.788C49.862 16.973 50.1148 17.2443 50.3245 17.602C50.5341 17.9473 50.6945 18.3728 50.8055 18.8785C50.9165 19.3718 50.972 19.9207 50.972 20.525C50.972 21.1293 50.9165 21.6843 50.8055 22.19C50.6945 22.6833 50.5341 23.1088 50.3245 23.4665C50.1148 23.8118 49.862 24.0832 49.566 24.2805C49.2823 24.4655 48.9616 24.558 48.604 24.558C48.2463 24.558 47.9195 24.4655 47.6235 24.2805C47.3398 24.0832 47.0931 23.8118 46.8835 23.4665C46.6738 23.1088 46.5135 22.6833 46.4025 22.19C46.2915 21.6843 46.236 21.1293 46.236 20.525ZM43.2205 20.525C43.2205 21.931 43.4425 23.1335 43.8865 24.1325C44.3428 25.1315 44.978 25.9023 45.792 26.445C46.606 26.9753 47.5433 27.2405 48.604 27.2405C49.714 27.2405 50.6698 26.9753 51.4715 26.445C52.2731 25.9023 52.8898 25.1315 53.3215 24.1325C53.7655 23.1335 53.9875 21.931 53.9875 20.525C53.9875 19.119 53.7655 17.9165 53.3215 16.9175C52.8898 15.9185 52.2731 15.1538 51.4715 14.6235C50.6698 14.0808 49.714 13.8095 48.604 13.8095C47.5433 13.8095 46.606 14.0808 45.792 14.6235C44.978 15.1538 44.3428 15.9185 43.8865 16.9175C43.4425 17.9165 43.2205 19.119 43.2205 20.525Z" fill="black"/>
<path d="M66.917 15.725C66.917 15.4433 66.9798 15.2028 67.1055 15.0035C67.2312 14.8042 67.3958 14.6525 67.5995 14.5485C67.8075 14.4445 68.035 14.3925 68.282 14.3925C68.4987 14.3925 68.6893 14.4207 68.854 14.477C69.0187 14.529 69.166 14.6027 69.296 14.698C69.426 14.789 69.5408 14.8865 69.6405 14.9905V13.8075C69.4585 13.6645 69.2592 13.5518 69.0425 13.4695C68.8258 13.3872 68.5507 13.346 68.217 13.346C67.853 13.346 67.5172 13.4023 67.2095 13.515C66.9018 13.6277 66.6375 13.7902 66.4165 14.0025C66.1955 14.2148 66.0243 14.4662 65.903 14.7565C65.7817 15.0468 65.721 15.3697 65.721 15.725C65.721 16.0803 65.7817 16.4032 65.903 16.6935C66.0243 16.9838 66.1955 17.2352 66.4165 17.4475C66.6375 17.6598 66.9018 17.8223 67.2095 17.935C67.5172 18.0477 67.853 18.104 68.217 18.104C68.5507 18.104 68.8258 18.0628 69.0425 17.9805C69.2592 17.8982 69.4585 17.7855 69.6405 17.6425V16.4595C69.5408 16.5635 69.426 16.661 69.296 16.752C69.166 16.843 69.0187 16.9167 68.854 16.973C68.6893 17.0293 68.4987 17.0575 68.282 17.0575C68.035 17.0575 67.8075 17.0055 67.5995 16.9015C67.3958 16.7975 67.2312 16.6458 67.1055 16.4465C66.9798 16.2428 66.917 16.0023 66.917 15.725ZM71.4454 15.725C71.4454 15.4563 71.4974 15.2202 71.6014 15.0165C71.7097 14.8085 71.8592 14.646 72.0499 14.529C72.2449 14.412 72.4724 14.3535 72.7324 14.3535C72.9967 14.3535 73.2242 14.412 73.4149 14.529C73.6055 14.646 73.7529 14.8085 73.8569 15.0165C73.9609 15.2202 74.0129 15.4563 74.0129 15.725C74.0129 15.9937 73.9587 16.232 73.8504 16.44C73.7464 16.6437 73.5969 16.804 73.4019 16.921C73.2112 17.038 72.988 17.0965 72.7324 17.0965C72.4724 17.0965 72.2449 17.038 72.0499 16.921C71.8592 16.804 71.7097 16.6437 71.6014 16.44C71.4974 16.232 71.4454 15.9937 71.4454 15.725ZM70.2819 15.725C70.2819 16.076 70.3404 16.3988 70.4574 16.6935C70.5787 16.9882 70.7477 17.2438 70.9644 17.4605C71.1854 17.6772 71.4454 17.8462 71.7444 17.9675C72.0434 18.0845 72.3727 18.143 72.7324 18.143C73.0877 18.143 73.4149 18.0845 73.7139 17.9675C74.0129 17.8462 74.2707 17.6772 74.4874 17.4605C74.7084 17.2438 74.8774 16.9882 74.9944 16.6935C75.1157 16.3988 75.1764 16.076 75.1764 15.725C75.1764 15.374 75.1157 15.0533 74.9944 14.763C74.873 14.4727 74.7019 14.2213 74.4809 14.009C74.2599 13.7967 73.9999 13.6342 73.7009 13.5215C73.4062 13.4045 73.0834 13.346 72.7324 13.346C72.3857 13.346 72.0629 13.4045 71.7639 13.5215C71.4649 13.6342 71.2049 13.7967 70.9839 14.009C70.7629 14.2213 70.5895 14.4727 70.4639 14.763C70.3425 15.0533 70.2819 15.374 70.2819 15.725ZM77.0535 15.6795L78.295 17.5775L79.543 15.6795L79.816 18H80.973L80.2385 13.2225L78.295 15.998L76.358 13.2225L75.6235 18H76.7805L77.0535 15.6795ZM81.6758 13.45V18H82.7743V13.45H81.6758ZM82.3648 14.3535H83.2553C83.4763 14.3535 83.6496 14.4033 83.7753 14.503C83.901 14.6027 83.9638 14.7478 83.9638 14.9385C83.9638 15.1248 83.901 15.2678 83.7753 15.3675C83.6496 15.4672 83.4763 15.517 83.2553 15.517H82.3648V16.4205H83.2553C83.641 16.4205 83.9638 16.362 84.2238 16.245C84.4881 16.1237 84.6875 15.9525 84.8218 15.7315C84.9561 15.5062 85.0233 15.2418 85.0233 14.9385C85.0233 14.6265 84.9561 14.36 84.8218 14.139C84.6875 13.918 84.4881 13.749 84.2238 13.632C83.9638 13.5107 83.641 13.45 83.2553 13.45H82.3648V14.3535ZM85.7289 13.45V18H88.6539V17.0575H86.8274V13.45H85.7289ZM89.8942 18H92.1887V17.0965H89.8942V18ZM89.8942 14.3535H92.1887V13.45H89.8942V14.3535ZM89.8942 16.05H92.0587V15.166H89.8942V16.05ZM89.1662 13.45V18H90.2192V13.45H89.1662ZM92.6309 14.4315H93.879V18H94.9775V14.4315H96.232V13.45H92.6309V14.4315ZM97.4608 18H99.7553V17.0965H97.4608V18ZM97.4608 14.3535H99.7553V13.45H97.4608V14.3535ZM97.4608 16.05H99.6253V15.166H97.4608V16.05ZM96.7328 13.45V18H97.7858V13.45H96.7328ZM100.653 13.45V18H101.784V13.45H100.653ZM102.278 18C102.776 18 103.207 17.9068 103.571 17.7205C103.935 17.5342 104.217 17.272 104.416 16.934C104.615 16.5917 104.715 16.1887 104.715 15.725C104.715 15.257 104.615 14.854 104.416 14.516C104.217 14.178 103.935 13.9158 103.571 13.7295C103.207 13.5432 102.776 13.45 102.278 13.45H101.381V14.425H102.239C102.412 14.425 102.579 14.4467 102.739 14.49C102.904 14.5333 103.047 14.6048 103.168 14.7045C103.294 14.8042 103.393 14.9385 103.467 15.1075C103.541 15.2722 103.578 15.478 103.578 15.725C103.578 15.972 103.541 16.18 103.467 16.349C103.393 16.5137 103.294 16.6458 103.168 16.7455C103.047 16.8452 102.904 16.9167 102.739 16.96C102.579 17.0033 102.412 17.025 102.239 17.025H101.381V18H102.278Z" fill="black"/>
<path d="M65.981 23.45V28H67.0795V23.45H65.981ZM66.67 24.3535H67.5605C67.7815 24.3535 67.9548 24.4033 68.0805 24.503C68.2062 24.6027 68.269 24.7478 68.269 24.9385C68.269 25.1248 68.2062 25.2678 68.0805 25.3675C67.9548 25.4672 67.7815 25.517 67.5605 25.517H66.67V26.4205H67.5605C67.9462 26.4205 68.269 26.362 68.529 26.245C68.7933 26.1237 68.9927 25.9525 69.127 25.7315C69.2613 25.5062 69.3285 25.2418 69.3285 24.9385C69.3285 24.6265 69.2613 24.36 69.127 24.139C68.9927 23.918 68.7933 23.749 68.529 23.632C68.269 23.5107 67.9462 23.45 67.5605 23.45H66.67V24.3535ZM71.1716 25.9395L72.4456 28H73.7326L72.3091 25.9395H71.1716ZM70.0341 23.45V28H71.1326V23.45H70.0341ZM70.7231 24.3795H71.6136C71.7609 24.3795 71.8866 24.4033 71.9906 24.451C72.0989 24.4987 72.1812 24.568 72.2376 24.659C72.2939 24.7457 72.3221 24.8518 72.3221 24.9775C72.3221 25.1032 72.2939 25.2115 72.2376 25.3025C72.1812 25.3892 72.0989 25.4563 71.9906 25.504C71.8866 25.5473 71.7609 25.569 71.6136 25.569H70.7231V26.4205H71.6916C72.0816 26.4205 72.4066 26.3577 72.6666 26.232C72.9266 26.1063 73.1237 25.933 73.2581 25.712C73.3924 25.4867 73.4596 25.2288 73.4596 24.9385C73.4596 24.6438 73.3924 24.386 73.2581 24.165C73.1237 23.9397 72.9266 23.7642 72.6666 23.6385C72.4066 23.5128 72.0816 23.45 71.6916 23.45H70.7231V24.3795ZM75.1493 25.725C75.1493 25.4563 75.2013 25.2202 75.3053 25.0165C75.4136 24.8085 75.5631 24.646 75.7538 24.529C75.9488 24.412 76.1763 24.3535 76.4363 24.3535C76.7006 24.3535 76.9281 24.412 77.1188 24.529C77.3095 24.646 77.4568 24.8085 77.5608 25.0165C77.6648 25.2202 77.7168 25.4563 77.7168 25.725C77.7168 25.9937 77.6626 26.232 77.5543 26.44C77.4503 26.6437 77.3008 26.804 77.1058 26.921C76.9151 27.038 76.692 27.0965 76.4363 27.0965C76.1763 27.0965 75.9488 27.038 75.7538 26.921C75.5631 26.804 75.4136 26.6437 75.3053 26.44C75.2013 26.232 75.1493 25.9937 75.1493 25.725ZM73.9858 25.725C73.9858 26.076 74.0443 26.3988 74.1613 26.6935C74.2826 26.9882 74.4516 27.2438 74.6683 27.4605C74.8893 27.6772 75.1493 27.8462 75.4483 27.9675C75.7473 28.0845 76.0766 28.143 76.4363 28.143C76.7916 28.143 77.1188 28.0845 77.4178 27.9675C77.7168 27.8462 77.9746 27.6772 78.1913 27.4605C78.4123 27.2438 78.5813 26.9882 78.6983 26.6935C78.8196 26.3988 78.8803 26.076 78.8803 25.725C78.8803 25.374 78.8196 25.0533 78.6983 24.763C78.577 24.4727 78.4058 24.2213 78.1848 24.009C77.9638 23.7967 77.7038 23.6342 77.4048 23.5215C77.1101 23.4045 76.7873 23.346 76.4363 23.346C76.0896 23.346 75.7668 23.4045 75.4678 23.5215C75.1688 23.6342 74.9088 23.7967 74.6878 24.009C74.4668 24.2213 74.2935 24.4727 74.1678 24.763C74.0465 25.0533 73.9858 25.374 73.9858 25.725ZM78.6384 28.416L78.0404 29.183C78.1314 29.2437 78.2398 29.3 78.3654 29.352C78.4911 29.4083 78.6319 29.456 78.7879 29.495C78.9439 29.534 79.1064 29.5535 79.2754 29.5535C79.4748 29.5535 79.6654 29.5297 79.8474 29.482C80.0294 29.4387 80.1898 29.3693 80.3284 29.274C80.4671 29.183 80.5754 29.0595 80.6534 28.9035C80.7314 28.7518 80.7704 28.5677 80.7704 28.351V23.45H79.5874V28.104C79.5874 28.2947 79.5419 28.429 79.4509 28.507C79.3599 28.585 79.2646 28.624 79.1649 28.624C79.0696 28.624 78.9743 28.6023 78.8789 28.559C78.7836 28.52 78.7034 28.4723 78.6384 28.416ZM82.4642 28H84.7587V27.0965H82.4642V28ZM82.4642 24.3535H84.7587V23.45H82.4642V24.3535ZM82.4642 26.05H84.6287V25.166H82.4642V26.05ZM81.7362 23.45V28H82.7892V23.45H81.7362ZM86.5919 25.725C86.5919 25.4433 86.6548 25.2028 86.7804 25.0035C86.9061 24.8042 87.0708 24.6525 87.2744 24.5485C87.4824 24.4445 87.7099 24.3925 87.9569 24.3925C88.1736 24.3925 88.3643 24.4207 88.5289 24.477C88.6936 24.529 88.8409 24.6027 88.9709 24.698C89.1009 24.789 89.2158 24.8865 89.3154 24.9905V23.8075C89.1334 23.6645 88.9341 23.5518 88.7174 23.4695C88.5008 23.3872 88.2256 23.346 87.8919 23.346C87.5279 23.346 87.1921 23.4023 86.8844 23.515C86.5768 23.6277 86.3124 23.7902 86.0914 24.0025C85.8704 24.2148 85.6993 24.4662 85.5779 24.7565C85.4566 25.0468 85.3959 25.3697 85.3959 25.725C85.3959 26.0803 85.4566 26.4032 85.5779 26.6935C85.6993 26.9838 85.8704 27.2352 86.0914 27.4475C86.3124 27.6598 86.5768 27.8223 86.8844 27.935C87.1921 28.0477 87.5279 28.104 87.8919 28.104C88.2256 28.104 88.5008 28.0628 88.7174 27.9805C88.9341 27.8982 89.1334 27.7855 89.3154 27.6425V26.4595C89.2158 26.5635 89.1009 26.661 88.9709 26.752C88.8409 26.843 88.6936 26.9167 88.5289 26.973C88.3643 27.0293 88.1736 27.0575 87.9569 27.0575C87.7099 27.0575 87.4824 27.0055 87.2744 26.9015C87.0708 26.7975 86.9061 26.6458 86.7804 26.4465C86.6548 26.2428 86.5919 26.0023 86.5919 25.725ZM89.565 24.4315H90.813V28H91.9115V24.4315H93.166V23.45H89.565V24.4315ZM94.1673 26.401L93.4003 26.9535C93.5043 27.1702 93.6495 27.3695 93.8358 27.5515C94.0222 27.7335 94.241 27.8787 94.4923 27.987C94.748 28.091 95.0232 28.143 95.3178 28.143C95.5302 28.143 95.736 28.1105 95.9353 28.0455C96.139 27.9848 96.3188 27.8938 96.4748 27.7725C96.6352 27.6512 96.7608 27.5017 96.8518 27.324C96.9472 27.142 96.9948 26.9362 96.9948 26.7065C96.9948 26.5158 96.9645 26.3468 96.9038 26.1995C96.8432 26.0522 96.7587 25.9222 96.6503 25.8095C96.5463 25.6968 96.425 25.6015 96.2863 25.5235C96.1477 25.4412 95.9982 25.3697 95.8378 25.309C95.6255 25.2353 95.4435 25.166 95.2918 25.101C95.1445 25.036 95.0297 24.9645 94.9473 24.8865C94.8693 24.8085 94.8303 24.7175 94.8303 24.6135C94.8303 24.5138 94.8715 24.4315 94.9538 24.3665C95.0362 24.2972 95.1553 24.2625 95.3113 24.2625C95.4283 24.2625 95.5367 24.2863 95.6363 24.334C95.7403 24.3773 95.8335 24.4402 95.9158 24.5225C96.0025 24.6005 96.0783 24.6937 96.1433 24.802L96.9818 24.334C96.9038 24.178 96.7912 24.0242 96.6438 23.8725C96.4965 23.7208 96.3102 23.5952 96.0848 23.4955C95.8638 23.3958 95.6017 23.346 95.2983 23.346C95.0037 23.346 94.735 23.398 94.4923 23.502C94.254 23.6017 94.0633 23.749 93.9203 23.944C93.7817 24.139 93.7123 24.3708 93.7123 24.6395C93.7123 24.8648 93.7535 25.0577 93.8358 25.218C93.9182 25.374 94.0222 25.5083 94.1478 25.621C94.2735 25.7293 94.4057 25.8182 94.5443 25.8875C94.6873 25.9568 94.813 26.011 94.9213 26.05C95.1423 26.1323 95.32 26.206 95.4543 26.271C95.5887 26.336 95.6862 26.4053 95.7468 26.479C95.8075 26.5483 95.8378 26.6415 95.8378 26.7585C95.8378 26.8972 95.7858 27.0077 95.6818 27.09C95.5778 27.168 95.4457 27.207 95.2853 27.207C95.1337 27.207 94.9885 27.1745 94.8498 27.1095C94.7155 27.0445 94.5898 26.9513 94.4728 26.83C94.3602 26.7087 94.2583 26.5657 94.1673 26.401Z" fill="#29A587"/>
<rect x="0.5" y="1" width="124" height="40" rx="20" stroke="black" shape-rendering="crispEdges"/>
</g>
<defs>
<filter id="filter0_d_1_8" x="0" y="0.5" width="127.5" height="43.5" filterUnits="userSpaceOnUse" color-interpolation-filters="sRGB">
<feFlood flood-opacity="0" result="BackgroundImageFix"/>
<feColorMatrix in="SourceAlpha" type="matrix" values="0 0 0 0 0 0 0 0 0 0 0 0 0 0 0 0 0 0 127 0" result="hardAlpha"/>
<feOffset dx="2.5" dy="2.5"/>
<feComposite in2="hardAlpha" operator="out"/>
<feColorMatrix type="matrix" values="0 0 0 0 0 0 0 0 0 0 0 0 0 0 0 0 0 0 0.2 0"/>
<feBlend mode="normal" in2="BackgroundImageFix" result="effect1_dropShadow_1_8"/>
<feBlend mode="normal" in="SourceGraphic" in2="effect1_dropShadow_1_8" result="shape"/>
</filter>
</defs>
</svg>
