<svg width="128" height="44" viewBox="0 0 128 44" fill="none" xmlns="http://www.w3.org/2000/svg">
<g filter="url(#filter0_d_1_7)">
<rect width="125" height="41" rx="20.5" fill="white" shape-rendering="crispEdges"/>
<path d="M18.758 17.287L21.9585 16.4915V26.5H24.974V13.3095L18.758 14.5675V17.287ZM27.2826 26.5H38.2531V23.6325H33.0731L36.0886 20.9315C36.6436 20.4505 37.0938 19.9202 37.4391 19.3405C37.7844 18.7485 37.9571 18.101 37.9571 17.398C37.9571 16.9047 37.8523 16.4175 37.6426 15.9365C37.4329 15.4555 37.1184 15.0177 36.6991 14.623C36.2921 14.216 35.7803 13.8953 35.1636 13.661C34.5469 13.4143 33.8378 13.291 33.0361 13.291C31.9261 13.291 30.9826 13.5192 30.2056 13.9755C29.4409 14.4318 28.8674 15.0423 28.4851 15.807C28.1028 16.5717 27.9116 17.4165 27.9116 18.3415H30.9826C30.9826 17.8728 31.0566 17.4597 31.2046 17.102C31.3649 16.7443 31.5931 16.4668 31.8891 16.2695C32.1974 16.0722 32.5489 15.9735 32.9436 15.9735C33.2396 15.9735 33.4986 16.0228 33.7206 16.1215C33.9426 16.2078 34.1276 16.3312 34.2756 16.4915C34.4236 16.6395 34.5346 16.8122 34.6086 17.0095C34.6826 17.2068 34.7196 17.4042 34.7196 17.6015C34.7196 17.9468 34.6518 18.2737 34.5161 18.582C34.3928 18.878 34.2016 19.1802 33.9426 19.4885C33.6959 19.7968 33.3999 20.1422 33.0546 20.5245L27.2826 26.5Z" fill="black"/>
<path d="M45.8021 22.874H55.8661V20.173H45.8021V22.874ZM49.3911 16.51V26.537H52.2771V16.51H49.3911Z" fill="#29A587"/>
<path d="M69.5355 12.95L68.645 14.6595L67.7545 12.95H66.4935L68.086 15.654V17.5H69.204V15.6475L70.7965 12.95H69.5355ZM72.0033 17.5H74.2978V16.5965H72.0033V17.5ZM72.0033 13.8535H74.2978V12.95H72.0033V13.8535ZM72.0033 15.55H74.1678V14.666H72.0033V15.55ZM71.2753 12.95V17.5H72.3283V12.95H71.2753ZM75.91 16.6225H78.315L78.2435 15.784H75.988L75.91 16.6225ZM77.0995 14.6205L77.743 16.096L77.704 16.3755L78.25 17.5H79.498L77.0995 12.664L74.7075 17.5H75.949L76.5145 16.33L76.4625 16.0895L77.0995 14.6205ZM81.1156 15.4395L82.3896 17.5H83.6766L82.2531 15.4395H81.1156ZM79.9781 12.95V17.5H81.0766V12.95H79.9781ZM80.6671 13.8795H81.5576C81.7049 13.8795 81.8306 13.9033 81.9346 13.951C82.0429 13.9987 82.1252 14.068 82.1816 14.159C82.2379 14.2457 82.2661 14.3518 82.2661 14.4775C82.2661 14.6032 82.2379 14.7115 82.1816 14.8025C82.1252 14.8892 82.0429 14.9563 81.9346 15.004C81.8306 15.0473 81.7049 15.069 81.5576 15.069H80.6671V15.9205H81.6356C82.0256 15.9205 82.3506 15.8577 82.6106 15.732C82.8706 15.6063 83.0677 15.433 83.2021 15.212C83.3364 14.9867 83.4036 14.7288 83.4036 14.4385C83.4036 14.1438 83.3364 13.886 83.2021 13.665C83.0677 13.4397 82.8706 13.2642 82.6106 13.1385C82.3506 13.0128 82.0256 12.95 81.6356 12.95H80.6671V13.8795ZM84.6903 15.901L83.9233 16.4535C84.0273 16.6702 84.1725 16.8695 84.3588 17.0515C84.5451 17.2335 84.764 17.3787 85.0153 17.487C85.271 17.591 85.5461 17.643 85.8408 17.643C86.0531 17.643 86.259 17.6105 86.4583 17.5455C86.662 17.4848 86.8418 17.3938 86.9978 17.2725C87.1581 17.1512 87.2838 17.0017 87.3748 16.824C87.4701 16.642 87.5178 16.4362 87.5178 16.2065C87.5178 16.0158 87.4875 15.8468 87.4268 15.6995C87.3661 15.5522 87.2816 15.4222 87.1733 15.3095C87.0693 15.1968 86.948 15.1015 86.8093 15.0235C86.6706 14.9412 86.5211 14.8697 86.3608 14.809C86.1485 14.7353 85.9665 14.666 85.8148 14.601C85.6675 14.536 85.5526 14.4645 85.4703 14.3865C85.3923 14.3085 85.3533 14.2175 85.3533 14.1135C85.3533 14.0138 85.3945 13.9315 85.4768 13.8665C85.5591 13.7972 85.6783 13.7625 85.8343 13.7625C85.9513 13.7625 86.0596 13.7863 86.1593 13.834C86.2633 13.8773 86.3565 13.9402 86.4388 14.0225C86.5255 14.1005 86.6013 14.1937 86.6663 14.302L87.5048 13.834C87.4268 13.678 87.3141 13.5242 87.1668 13.3725C87.0195 13.2208 86.8331 13.0952 86.6078 12.9955C86.3868 12.8958 86.1246 12.846 85.8213 12.846C85.5266 12.846 85.258 12.898 85.0153 13.002C84.777 13.1017 84.5863 13.249 84.4433 13.444C84.3046 13.639 84.2353 13.8708 84.2353 14.1395C84.2353 14.3648 84.2765 14.5577 84.3588 14.718C84.4411 14.874 84.5451 15.0083 84.6708 15.121C84.7965 15.2293 84.9286 15.3182 85.0673 15.3875C85.2103 15.4568 85.336 15.511 85.4443 15.55C85.6653 15.6323 85.843 15.706 85.9773 15.771C86.1116 15.836 86.2091 15.9053 86.2698 15.979C86.3305 16.0483 86.3608 16.1415 86.3608 16.2585C86.3608 16.3972 86.3088 16.5077 86.2048 16.59C86.1008 16.668 85.9686 16.707 85.8083 16.707C85.6566 16.707 85.5115 16.6745 85.3728 16.6095C85.2385 16.5445 85.1128 16.4513 84.9958 16.33C84.8831 16.2087 84.7813 16.0657 84.6903 15.901ZM91.111 15.225C91.111 14.9563 91.163 14.7202 91.267 14.5165C91.3754 14.3085 91.5249 14.146 91.7155 14.029C91.9105 13.912 92.138 13.8535 92.398 13.8535C92.6624 13.8535 92.8899 13.912 93.0805 14.029C93.2712 14.146 93.4185 14.3085 93.5225 14.5165C93.6265 14.7202 93.6785 14.9563 93.6785 15.225C93.6785 15.4937 93.6244 15.732 93.516 15.94C93.412 16.1437 93.2625 16.304 93.0675 16.421C92.8769 16.538 92.6537 16.5965 92.398 16.5965C92.138 16.5965 91.9105 16.538 91.7155 16.421C91.5249 16.304 91.3754 16.1437 91.267 15.94C91.163 15.732 91.111 15.4937 91.111 15.225ZM89.9475 15.225C89.9475 15.576 90.006 15.8988 90.123 16.1935C90.2444 16.4882 90.4134 16.7438 90.63 16.9605C90.851 17.1772 91.111 17.3462 91.41 17.4675C91.709 17.5845 92.0384 17.643 92.398 17.643C92.7534 17.643 93.0805 17.5845 93.3795 17.4675C93.6785 17.3462 93.9364 17.1772 94.153 16.9605C94.374 16.7438 94.543 16.4882 94.66 16.1935C94.7814 15.8988 94.842 15.576 94.842 15.225C94.842 14.874 94.7814 14.5533 94.66 14.263C94.5387 13.9727 94.3675 13.7213 94.1465 13.509C93.9255 13.2967 93.6655 13.1342 93.3665 13.0215C93.0719 12.9045 92.749 12.846 92.398 12.846C92.0514 12.846 91.7285 12.9045 91.4295 13.0215C91.1305 13.1342 90.8705 13.2967 90.6495 13.509C90.4285 13.7213 90.2552 13.9727 90.1295 14.263C90.0082 14.5533 89.9475 14.874 89.9475 15.225ZM96.2772 13.8925H98.3117V12.95H96.2772V13.8925ZM96.2772 15.6735H98.2467V14.7895H96.2772V15.6735ZM95.5492 12.95V17.5H96.6022V12.95H95.5492Z" fill="black"/>
<path d="M67.709 27.5H70.0035V26.5965H67.709V27.5ZM67.709 23.8535H70.0035V22.95H67.709V23.8535ZM67.709 25.55H69.8735V24.666H67.709V25.55ZM66.981 22.95V27.5H68.034V22.95H66.981ZM73.3968 22.95L72.6688 24.2695L71.9668 22.95H70.6083L72.0058 25.1665L70.4458 27.5H71.8043L72.6623 25.9855L73.4943 27.5H74.8528L73.3253 25.1665L74.7553 22.95H73.3968ZM75.3601 22.95V27.5H76.4586V22.95H75.3601ZM76.0491 23.8535H76.9396C77.1606 23.8535 77.3339 23.9033 77.4596 24.003C77.5852 24.1027 77.6481 24.2478 77.6481 24.4385C77.6481 24.6248 77.5852 24.7678 77.4596 24.8675C77.3339 24.9672 77.1606 25.017 76.9396 25.017H76.0491V25.9205H76.9396C77.3252 25.9205 77.6481 25.862 77.9081 25.745C78.1724 25.6237 78.3717 25.4525 78.5061 25.2315C78.6404 25.0062 78.7076 24.7418 78.7076 24.4385C78.7076 24.1265 78.6404 23.86 78.5061 23.639C78.3717 23.418 78.1724 23.249 77.9081 23.132C77.6481 23.0107 77.3252 22.95 76.9396 22.95H76.0491V23.8535ZM80.1411 27.5H82.4356V26.5965H80.1411V27.5ZM80.1411 23.8535H82.4356V22.95H80.1411V23.8535ZM80.1411 25.55H82.3056V24.666H80.1411V25.55ZM79.4131 22.95V27.5H80.4661V22.95H79.4131ZM84.4704 25.4395L85.7444 27.5H87.0314L85.6079 25.4395H84.4704ZM83.3329 22.95V27.5H84.4314V22.95H83.3329ZM84.0219 23.8795H84.9124C85.0597 23.8795 85.1854 23.9033 85.2894 23.951C85.3977 23.9987 85.48 24.068 85.5364 24.159C85.5927 24.2457 85.6209 24.3518 85.6209 24.4775C85.6209 24.6032 85.5927 24.7115 85.5364 24.8025C85.48 24.8892 85.3977 24.9563 85.2894 25.004C85.1854 25.0473 85.0597 25.069 84.9124 25.069H84.0219V25.9205H84.9904C85.3804 25.9205 85.7054 25.8577 85.9654 25.732C86.2254 25.6063 86.4225 25.433 86.5569 25.212C86.6912 24.9867 86.7584 24.7288 86.7584 24.4385C86.7584 24.1438 86.6912 23.886 86.5569 23.665C86.4225 23.4397 86.2254 23.2642 85.9654 23.1385C85.7054 23.0128 85.3804 22.95 84.9904 22.95H84.0219V23.8795ZM87.5446 22.95V27.5H88.6626V22.95H87.5446ZM90.3579 27.5H92.6524V26.5965H90.3579V27.5ZM90.3579 23.8535H92.6524V22.95H90.3579V23.8535ZM90.3579 25.55H92.5224V24.666H90.3579V25.55ZM89.6299 22.95V27.5H90.6829V22.95H89.6299ZM96.6891 22.95V25.511L93.5496 22.7225V27.5H94.6026V24.939L97.7486 27.7275V22.95H96.6891ZM99.6495 25.225C99.6495 24.9433 99.7124 24.7028 99.838 24.5035C99.9637 24.3042 100.128 24.1525 100.332 24.0485C100.54 23.9445 100.768 23.8925 101.015 23.8925C101.231 23.8925 101.422 23.9207 101.587 23.977C101.751 24.029 101.899 24.1027 102.029 24.198C102.159 24.289 102.273 24.3865 102.373 24.4905V23.3075C102.191 23.1645 101.992 23.0518 101.775 22.9695C101.558 22.8872 101.283 22.846 100.95 22.846C100.586 22.846 100.25 22.9023 99.942 23.015C99.6344 23.1277 99.37 23.2902 99.149 23.5025C98.928 23.7148 98.7569 23.9662 98.6355 24.2565C98.5142 24.5468 98.4535 24.8697 98.4535 25.225C98.4535 25.5803 98.5142 25.9032 98.6355 26.1935C98.7569 26.4838 98.928 26.7352 99.149 26.9475C99.37 27.1598 99.6344 27.3223 99.942 27.435C100.25 27.5477 100.586 27.604 100.95 27.604C101.283 27.604 101.558 27.5628 101.775 27.4805C101.992 27.3982 102.191 27.2855 102.373 27.1425V25.9595C102.273 26.0635 102.159 26.161 102.029 26.252C101.899 26.343 101.751 26.4167 101.587 26.473C101.422 26.5293 101.231 26.5575 101.015 26.5575C100.768 26.5575 100.54 26.5055 100.332 26.4015C100.128 26.2975 99.9637 26.1458 99.838 25.9465C99.7124 25.7428 99.6495 25.5023 99.6495 25.225ZM104.002 27.5H106.297V26.5965H104.002V27.5ZM104.002 23.8535H106.297V22.95H104.002V23.8535ZM104.002 25.55H106.167V24.666H104.002V25.55ZM103.274 22.95V27.5H104.327V22.95H103.274Z" fill="#29A587"/>
<rect x="0.5" y="0.5" width="124" height="40" rx="20" stroke="black" shape-rendering="crispEdges"/>
</g>
<defs>
<filter id="filter0_d_1_7" x="0" y="0" width="127.5" height="43.5" filterUnits="userSpaceOnUse" color-interpolation-filters="sRGB">
<feFlood flood-opacity="0" result="BackgroundImageFix"/>
<feColorMatrix in="SourceAlpha" type="matrix" values="0 0 0 0 0 0 0 0 0 0 0 0 0 0 0 0 0 0 127 0" result="hardAlpha"/>
<feOffset dx="2.5" dy="2.5"/>
<feComposite in2="hardAlpha" operator="out"/>
<feColorMatrix type="matrix" values="0 0 0 0 0 0 0 0 0 0 0 0 0 0 0 0 0 0 0.2 0"/>
<feBlend mode="normal" in2="BackgroundImageFix" result="effect1_dropShadow_1_7"/>
<feBlend mode="normal" in="SourceGraphic" in2="effect1_dropShadow_1_7" result="shape"/>
</filter>
</defs>
</svg>
