<svg width="125" height="26" viewBox="0 0 125 26" fill="none" xmlns="http://www.w3.org/2000/svg">
<g clip-path="url(#clip0_3_36)">
<path d="M0.568182 1.25H4.6875V18.1818H14.517V22.1591H0.568182V1.25Z" fill="black"/>
<path d="M18.4837 1.25H32.745V5.22727H22.603V9.6875H31.5803V13.6648H22.603V18.1818H33.1428V22.1591H18.4837V1.25Z" fill="black"/>
<path d="M40.2739 1.25L46.3818 16.3068L43.9955 15.8239L49.5352 1.25H54.4216L44.8762 23.125L35.3307 1.25H40.2739Z" fill="black"/>
<path d="M57.7548 1.25H61.8741V22.1591H57.7548V1.25Z" fill="black"/>
<path d="M85.7082 23.0114L69.856 8.69318L71.0775 9.375L71.1628 22.1591H66.9866V0.426137H67.1571L82.6685 14.6875L81.7594 14.2898L81.6741 1.25H85.8219V23.0114H85.7082Z" fill="black"/>
<path d="M90.9224 1.25H105.184V5.22727H95.0417V9.6875H104.019V13.6648H95.0417V18.1818H105.581V22.1591H90.9224V1.25Z" fill="black"/>
<path fill-rule="evenodd" clip-rule="evenodd" d="M66.4185 0H67.3786L81.1798 12.689L81.1022 0.823863H86.39V23.7216H85.4896L71.6571 11.2277L71.7348 22.8693H66.4185V0ZM71.6469 9.6872L71.6435 9.18224L70.1329 8.33909L69.4751 9.25688L70.5139 10.1951L70.5908 21.733H67.5548V1.70569L81.1899 14.242L81.1936 14.8045L82.4407 15.3501L83.053 14.4113L82.323 13.7401L82.246 1.96023H85.2537V21.9772L71.6469 9.6872ZM0 0.823863H5.25568V17.7557H15.0852V22.8693H0V0.823863ZM1.13636 1.96023V21.733H13.9489V18.892H4.11932V1.96023H1.13636ZM17.9155 0.823863H33.3132V5.9375H23.1712V9.26136H32.1484V14.375H23.1712V17.7557H33.7109V22.8693H17.9155V0.823863ZM19.0518 1.96023V21.733H32.5746V18.892H22.0348V13.2386H31.0121V10.3977H22.0348V4.80114H32.1768V1.96023H19.0518ZM34.4628 0.823863H40.6565L45.0379 11.6244L49.1434 0.823863H55.2895L44.8762 24.6877L34.4628 0.823863ZM44.4447 13.185L39.8912 1.96023H36.1986L44.8762 21.8464L46.9301 17.1395L43.2264 16.39L44.4447 13.185ZM47.1089 16.7297L45.6655 13.1715L49.9271 1.96023H53.5538L47.1089 16.7297ZM45.0723 14.7322L45.4576 15.6821L44.7645 15.5418L45.0723 14.7322ZM57.1866 0.823863H62.4423V22.8693H57.1866V0.823863ZM58.323 1.96023V21.733H61.3059V1.96023H58.323ZM90.3542 0.823863H105.752V5.9375H95.6099V9.26136H104.587V14.375H95.6099V17.7557H106.15V22.8693H90.3542V0.823863ZM91.4906 1.96023V21.733H105.013V18.892H94.4735V13.2386H103.451V10.3977H94.4735V4.80114H104.616V1.96023H91.4906Z" fill="black"/>
<rect x="117.513" y="8.52273" width="6.25" height="6.25" rx="3.125" stroke="#00A787" stroke-width="2.27273"/>
</g>
<defs>
<clipPath id="clip0_3_36">
<rect width="125" height="25" fill="white" transform="translate(0 0.284091)"/>
</clipPath>
</defs>
</svg>
