<svg width="452" height="452" viewBox="0 0 452 452" fill="none" xmlns="http://www.w3.org/2000/svg">
<rect x="164" y="24" width="12" height="12" rx="6" stroke="black" stroke-width="4"/>
<rect x="164" y="80" width="12" height="12" rx="6" stroke="black" stroke-width="4"/>
<rect x="164" y="136" width="12" height="12" rx="6" stroke="black" stroke-width="4"/>
<rect x="164" y="192" width="12" height="12" rx="6" stroke="black" stroke-width="4"/>
<rect x="164" y="248" width="12" height="12" rx="6" stroke="black" stroke-width="4"/>
<rect x="164" y="304" width="12" height="12" rx="6" stroke="black" stroke-width="4"/>
<rect x="164" y="360" width="12" height="12" rx="6" stroke="black" stroke-width="4"/>
<rect x="164" y="416" width="12" height="12" rx="6" stroke="black" stroke-width="4"/>
<rect x="108" y="80" width="12" height="12" rx="6" stroke="black" stroke-width="4"/>
<rect x="108" y="136" width="12" height="12" rx="6" stroke="black" stroke-width="4"/>
<rect x="108" y="192" width="12" height="12" rx="6" stroke="black" stroke-width="4"/>
<rect x="108" y="248" width="12" height="12" rx="6" stroke="black" stroke-width="4"/>
<rect x="108" y="304" width="12" height="12" rx="6" stroke="black" stroke-width="4"/>
<rect x="108" y="360" width="12" height="12" rx="6" stroke="black" stroke-width="4"/>
<rect x="52" y="136" width="12" height="12" rx="6" stroke="black" stroke-width="4"/>
<rect x="52" y="192" width="12" height="12" rx="6" stroke="black" stroke-width="4"/>
<rect x="52" y="248" width="12" height="12" rx="6" stroke="black" stroke-width="4"/>
<rect x="52" y="304" width="12" height="12" rx="6" stroke="black" stroke-width="4"/>
<rect x="220" y="80" width="12" height="12" rx="6" stroke="black" stroke-width="4"/>
<rect x="220" y="136" width="12" height="12" rx="6" stroke="black" stroke-width="4"/>
<rect x="220" y="192" width="12" height="12" rx="6" stroke="black" stroke-width="4"/>
<rect x="220" y="248" width="12" height="12" rx="6" stroke="black" stroke-width="4"/>
<rect x="220" y="304" width="12" height="12" rx="6" stroke="black" stroke-width="4"/>
<rect x="220" y="360" width="12" height="12" rx="6" stroke="black" stroke-width="4"/>
<rect x="220" y="416" width="12" height="12" rx="6" stroke="black" stroke-width="4"/>
<rect x="276" y="80" width="12" height="12" rx="6" stroke="black" stroke-width="4"/>
<rect x="276" y="136" width="12" height="12" rx="6" stroke="black" stroke-width="4"/>
<rect x="276" y="192" width="12" height="12" rx="6" stroke="black" stroke-width="4"/>
<rect x="276" y="248" width="12" height="12" rx="6" stroke="black" stroke-width="4"/>
<rect x="276" y="304" width="12" height="12" rx="6" stroke="black" stroke-width="4"/>
<rect x="276" y="360" width="12" height="12" rx="6" stroke="black" stroke-width="4"/>
<rect x="276" y="416" width="12" height="12" rx="6" stroke="black" stroke-width="4"/>
<rect x="332" y="80" width="12" height="12" rx="6" stroke="black" stroke-width="4"/>
<rect x="332" y="136" width="12" height="12" rx="6" stroke="black" stroke-width="4"/>
<rect x="332" y="192" width="12" height="12" rx="6" stroke="black" stroke-width="4"/>
<rect x="332" y="248" width="12" height="12" rx="6" stroke="black" stroke-width="4"/>
<rect x="332" y="304" width="12" height="12" rx="6" stroke="black" stroke-width="4"/>
<rect x="332" y="360" width="12" height="12" rx="6" stroke="black" stroke-width="4"/>
<rect x="388" y="136" width="12" height="12" rx="6" stroke="black" stroke-width="4"/>
<rect x="388" y="192" width="12" height="12" rx="6" stroke="black" stroke-width="4"/>
<rect x="388" y="248" width="12" height="12" rx="6" stroke="black" stroke-width="4"/>
<rect x="388" y="304" width="12" height="12" rx="6" stroke="black" stroke-width="4"/>
<rect x="220" y="24" width="12" height="12" rx="6" stroke="black" stroke-width="4"/>
<rect x="276" y="24" width="12" height="12" rx="6" stroke="black" stroke-width="4"/>
</svg>
