<svg width="282" height="282" viewBox="0 0 282 282" fill="none" xmlns="http://www.w3.org/2000/svg">
<rect x="79" y="23" width="12" height="12" rx="6" stroke="black" stroke-width="4"/>
<rect x="79" y="247" width="12" height="12" rx="6" stroke="black" stroke-width="4"/>
<rect x="79" y="79" width="12" height="12" rx="6" stroke="black" stroke-width="4"/>
<rect x="79" y="135" width="12" height="12" rx="6" stroke="black" stroke-width="4"/>
<rect x="79" y="191" width="12" height="12" rx="6" stroke="black" stroke-width="4"/>
<rect x="23" y="79" width="12" height="12" rx="6" stroke="black" stroke-width="4"/>
<rect x="23" y="135" width="12" height="12" rx="6" stroke="black" stroke-width="4"/>
<rect x="23" y="191" width="12" height="12" rx="6" stroke="black" stroke-width="4"/>
<rect x="135" y="23" width="12" height="12" rx="6" stroke="black" stroke-width="4"/>
<rect x="135" y="247" width="12" height="12" rx="6" stroke="black" stroke-width="4"/>
<rect x="135" y="79" width="12" height="12" rx="6" stroke="black" stroke-width="4"/>
<rect x="135" y="135" width="12" height="12" rx="6" stroke="black" stroke-width="4"/>
<rect x="135" y="191" width="12" height="12" rx="6" stroke="black" stroke-width="4"/>
<rect x="191" y="23" width="12" height="12" rx="6" stroke="black" stroke-width="4"/>
<rect x="191" y="247" width="12" height="12" rx="6" stroke="black" stroke-width="4"/>
<rect x="191" y="79" width="12" height="12" rx="6" stroke="black" stroke-width="4"/>
<rect x="191" y="135" width="12" height="12" rx="6" stroke="black" stroke-width="4"/>
<rect x="191" y="191" width="12" height="12" rx="6" stroke="black" stroke-width="4"/>
<rect x="247" y="79" width="12" height="12" rx="6" stroke="black" stroke-width="4"/>
<rect x="247" y="135" width="12" height="12" rx="6" stroke="black" stroke-width="4"/>
<rect x="247" y="191" width="12" height="12" rx="6" stroke="black" stroke-width="4"/>
</svg>
